# xmcd CD database file
#
# Track frame offsets:
#	150
#	14676
#	27773
#	42611
#	57351
#	70530
#	85126
#	97859
#	111625
#	126341
#	141608
#	157059
#	171553
#	184369
#	197270
#	211862
#
# Disc length: 3022 seconds
#
# Revision: 2
# Processed by: cddbd v1.5.2PL0 Copyright (c) Steve Scherf et al.
# Submitted via: CDex 1.70beta2
#
DISCID=ef0bcc10
DTITLE=Hot Lips Page - The Blues Jumped The Rabbit
DYEAR=1900
DGENRE=Blues
TTITLE0=You'd Be Frantic Too
TTITLE1=Just Another Woman
TTITLE2=Uncle Sam's Blues
TTITLE3=Thirsty Mama Blues
TTITLE4=Pagin' Mr. Page
TTITLE5=My Fightin' Gal
TTITLE6=Rockin' At Ryans
TTITLE7=Blooey
TTITLE8=I Keep Rollin' On
TTITLE9=Double-Trouble Blues
TTITLE10=Evil Man's Blues
TTITLE11=My Gal Is Gone
TTITLE12=Six, Seven, Eight Or Nine
TTITLE13=The Lady In Bed
TTITLE14=You Need Coachin'
TTITLE15=The Blues Jumped The Rabbit
EXTD=
EXTT0=
EXTT1=
EXTT2=
EXTT3=
EXTT4=
EXTT5=
EXTT6=
EXTT7=
EXTT8=
EXTT9=
EXTT10=
EXTT11=
EXTT12=
EXTT13=
EXTT14=
EXTT15=
PLAYORDER=
